<svg version="1.1" id="Layer_1" xmlns="http://www.w3.org/2000/svg" xmlns:xlink="http://www.w3.org/1999/xlink" x="0px" y="0px"
	 width="100%" viewBox="0 0 55 60" enable-background="new 0 0 55 60" xml:space="preserve">
<path fill="#F36422" opacity="1.000000" stroke="none" 
	d="
M56.000000,39.000000 
	C56.000000,43.689255 56.000000,48.378513 55.765331,53.194626 
	C53.353775,55.880993 51.176888,58.440498 49.000000,61.000000 
	C43.645069,61.000000 38.290142,61.000000 32.456917,60.604805 
	C29.854658,53.169434 27.730692,46.129253 25.579853,39.000000 
	C17.170437,39.000000 9.085218,39.000000 1.000000,39.000000 
	C1.000000,36.629444 1.000000,34.258884 1.298649,31.781792 
	C4.731532,21.450171 7.865766,11.225085 11.000000,1.000000 
	C14.361287,1.000000 17.722574,1.000000 21.544411,1.404104 
	C24.495926,10.196422 27.195398,18.530619 29.388470,26.996004 
	C30.458946,31.128099 32.465801,32.446625 36.620960,32.079216 
	C43.430233,31.477129 49.750961,32.736599 54.233021,38.689949 
	C54.495758,39.038929 55.396278,38.907738 56.000000,39.000000 
M41.206291,39.000603 
	C38.719151,39.000603 36.232010,39.000603 33.322796,39.000603 
	C34.576805,43.089161 35.715145,46.910721 36.922901,50.710220 
	C38.400105,55.357388 41.429546,56.851364 45.008804,53.777252 
	C47.134323,51.951702 48.770473,48.291039 48.701153,45.503349 
	C48.618973,42.198486 46.476093,38.934307 41.206291,39.000603 
M17.995028,14.716305 
	C17.533894,13.391541 17.072758,12.066775 16.480137,10.364270 
	C14.260629,17.707010 12.169174,24.626120 10.054678,31.621454 
	C14.497525,31.621454 18.670864,31.621454 23.334862,31.621454 
	C21.454632,25.926500 19.734234,20.715654 17.995028,14.716305 
z"/>
<path fill="#000000" opacity="1.000000" stroke="none" 
	d="
M56.000000,38.531342 
	C55.396278,38.907738 54.495758,39.038929 54.233021,38.689949 
	C49.750961,32.736599 43.430233,31.477129 36.620960,32.079216 
	C32.465801,32.446625 30.458946,31.128099 29.388470,26.996004 
	C27.195398,18.530619 24.495926,10.196422 22.002480,1.404104 
	C33.264019,1.000000 44.528034,1.000000 56.000000,1.000000 
	C56.000000,13.353451 56.000000,25.708067 56.000000,38.531342 
z"/>
<path fill="#000000" opacity="1.000000" stroke="none" 
	d="
M1.000000,39.468781 
	C9.085218,39.000000 17.170437,39.000000 25.579853,39.000000 
	C27.730692,46.129253 29.854658,53.169434 31.989311,60.604805 
	C21.752790,61.000000 11.505583,61.000000 1.000000,61.000000 
	C1.000000,53.981293 1.000000,46.959427 1.000000,39.468781 
z"/>
<path fill="#000000" opacity="1.000000" stroke="none" 
	d="
M10.513435,1.000000 
	C7.865766,11.225085 4.731532,21.450171 1.298649,31.337627 
	C1.000000,21.119780 1.000000,11.239559 1.000000,1.000000 
	C3.999423,1.000000 7.013147,1.000000 10.513435,1.000000 
z"/>
<path fill="#000000" opacity="1.000000" stroke="none" 
	d="
M49.497906,61.000000 
	C51.176888,58.440498 53.353775,55.880993 55.765331,53.660744 
	C56.000000,56.247639 56.000000,58.495274 56.000000,61.000000 
	C54.001858,61.000000 51.998837,61.000000 49.497906,61.000000 
z"/>
<path fill="#000000" opacity="1.000000" stroke="none" 
	d="
M41.640747,39.000511 
	C46.476093,38.934307 48.618973,42.198486 48.701153,45.503349 
	C48.770473,48.291039 47.134323,51.951702 45.008804,53.777252 
	C41.429546,56.851364 38.400105,55.357388 36.922901,50.710220 
	C35.715145,46.910721 34.576805,43.089161 33.322796,39.000603 
	C36.232010,39.000603 38.719151,39.000603 41.640747,39.000511 
z"/>
<path fill="#000000" opacity="1.000000" stroke="none" 
	d="
M18.004433,15.110558 
	C19.734234,20.715654 21.454632,25.926500 23.334862,31.621454 
	C18.670864,31.621454 14.497525,31.621454 10.054678,31.621454 
	C12.169174,24.626120 14.260629,17.707010 16.480137,10.364270 
	C17.072758,12.066775 17.533894,13.391541 18.004433,15.110558 
z"/>
</svg>