<svg width="165" height="165" xmlns="http://www.w3.org/2000/svg" xmlns:xlink="http://www.w3.org/1999/xlink" xml:space="preserve" overflow="hidden"><defs><clipPath id="clip0"><rect x="2425" y="327" width="165" height="165"/></clipPath></defs><g clip-path="url(#clip0)" transform="translate(-2425 -327)"><path d="M2468.42 367C2468.66 367 2468.91 366.964 2469.16 366.886L2473.32 365.582C2474.6 365.183 2475.29 363.861 2474.88 362.627 2474.47 361.393 2473.11 360.715 2471.84 361.114L2467.68 362.419C2466.4 362.817 2465.71 364.14 2466.12 365.374 2466.45 366.367 2467.4 367 2468.42 367Z" fill="#003C34" fill-rule="evenodd"/><path d="M2427.42 455 2587.58 455C2588.92 455 2590 453.916 2590 452.577 2590 451.238 2588.92 450.153 2587.58 450.153L2580.23 450.153 2580.23 438.916C2580.23 435.499 2577.74 432.654 2574.48 432.105L2580.05 425.078C2581.94 422.69 2582.48 419.54 2581.51 416.652 2580.53 413.765 2578.19 411.598 2575.24 410.857 2573.45 410.41 2571.62 410.536 2569.96 411.156L2544.83 354.658 2547.22 353.883 2547.22 353.883C2548.24 353.553 2549.07 352.846 2549.56 351.891 2550.05 350.936 2550.13 349.847 2549.8 348.826L2548.84 345.83 2551.95 344.825 2551.99 344.964C2552.4 346.232 2553.76 346.939 2555.03 346.526 2556.31 346.115 2557 344.749 2556.59 343.475L2556.55 343.335 2564.23 340.849C2565.46 340.45 2566.46 339.595 2567.05 338.439 2567.64 337.284 2567.75 335.967 2567.35 334.732L2565.95 330.367C2565.13 327.817 2562.39 326.413 2559.85 327.235L2552.17 329.721 2552.12 329.582C2551.71 328.308 2550.35 327.609 2549.08 328.02 2547.81 328.431 2547.11 329.797 2547.52 331.071L2547.57 331.211 2518.63 340.576C2517.36 340.987 2516.66 342.353 2517.07 343.627 2517.48 344.901 2518.84 345.599 2520.11 345.189L2549.05 335.832 2550.46 340.212 2485.62 361.199 2484.2 356.811 2511.22 348.068C2512.49 347.656 2513.19 346.291 2512.78 345.016 2512.37 343.743 2511 343.043 2509.74 343.455L2482.71 352.203C2482.56 351.869 2482.33 351.571 2482.05 351.335L2468.65 340.115C2468.02 339.582 2467.15 339.413 2466.36 339.669L2456.6 342.827C2455.8 343.087 2455.19 343.749 2454.99 344.573 2453.1 352.563 2453.09 359.993 2454.94 366.823L2448.71 440.761 2445.08 440.761C2442.16 440.761 2439.79 443.141 2439.79 446.067L2439.79 450.153 2427.42 450.153C2426.08 450.153 2425 451.238 2425 452.577 2425 453.916 2426.08 455 2427.42 455ZM2553.65 334.344 2561.35 331.856 2562.74 336.237 2555.06 338.723ZM2510.07 358.377 2514.1 380.354 2498.89 380.354 2502.47 360.839ZM2503.91 416.214 2503.91 412.203 2509.08 412.203 2509.08 416.214ZM2509.08 421.061 2509.08 425.072 2503.91 425.072 2503.91 421.061ZM2503.91 407.356 2503.91 403.344 2509.08 403.344 2509.08 407.356ZM2503.91 429.919 2509.08 429.919 2509.08 433.931 2503.91 433.931ZM2509.08 398.497 2503.91 398.497 2503.91 394.486 2509.08 394.486ZM2503.91 438.778 2509.08 438.778 2509.08 442.789 2503.91 442.789ZM2509.08 389.639 2503.91 389.639 2503.91 385.201 2509.08 385.201ZM2499.08 385.201 2499.08 450.153 2486.1 450.153 2498 385.201ZM2503.91 450.153 2503.91 447.636 2509.08 447.636 2509.08 450.153ZM2513.92 450.153 2513.92 385.201 2514.99 385.201 2526.89 450.153ZM2575.39 438.916 2575.39 450.153 2542.97 450.153 2542.97 438.916C2542.97 437.781 2543.89 436.857 2545.02 436.857L2573.34 436.857C2574.47 436.857 2575.39 437.781 2575.39 438.916ZM2540.79 350.872C2540.78 350.875 2540.77 350.877 2540.76 350.88L2536.87 352.142 2536.16 349.936 2544.24 347.32 2544.95 349.526ZM2532.52 354.421C2533.07 356.12 2534.64 357.204 2536.33 357.204 2536.74 357.204 2537.16 357.141 2537.56 357.01L2540.2 356.155 2565.98 414.111 2561.78 419.412C2560.95 420.46 2561.13 421.985 2562.17 422.817 2563.22 423.649 2564.74 423.474 2565.57 422.426L2568.2 419.102 2569 420.905C2569.4 421.807 2570.29 422.342 2571.21 422.342 2571.54 422.342 2571.87 422.274 2572.19 422.131 2573.41 421.586 2573.96 420.153 2573.42 418.931L2571.94 415.6C2572.62 415.402 2573.35 415.38 2574.06 415.559 2575.43 415.903 2576.48 416.869 2576.93 418.209 2577.38 419.549 2577.14 420.955 2576.26 422.063L2568.39 432.009 2557.98 432.009 2559.75 429.774C2560.58 428.726 2560.41 427.201 2559.36 426.369 2558.31 425.537 2556.79 425.712 2555.96 426.76L2551.81 432.009 2545.02 432.009C2541.23 432.009 2538.14 435.107 2538.14 438.915L2538.14 450.152 2531.8 450.152 2519.9 385.2 2520.87 385.2C2522.2 385.2 2523.28 384.115 2523.28 382.776 2523.28 381.438 2522.2 380.353 2520.87 380.353L2519.02 380.353 2514.71 356.875 2531.56 351.424ZM2459.4 347.014 2466.58 344.692 2478.41 354.606 2482.21 366.383 2478.38 381.366 2471.21 383.688C2460.55 373.967 2456.23 362.078 2459.4 347.014ZM2458.98 376.397C2461.48 380.64 2464.84 384.596 2469.05 388.253 2469.5 388.639 2470.06 388.844 2470.64 388.844 2470.88 388.844 2471.13 388.805 2471.38 388.726L2481.13 385.569C2481.92 385.313 2482.53 384.669 2482.73 383.863L2487.06 366.906C2487.15 366.549 2487.16 366.176 2487.09 365.817L2497.24 362.53 2493.98 380.354 2492.13 380.354C2490.79 380.354 2489.71 381.439 2489.71 382.777 2489.71 384.116 2490.79 385.201 2492.13 385.201L2493.09 385.201 2481.19 450.153 2462.08 450.153 2462.08 446.067C2462.08 443.141 2459.71 440.761 2456.79 440.761L2453.57 440.761ZM2444.62 446.067C2444.62 445.814 2444.83 445.608 2445.08 445.608L2456.79 445.608C2457.04 445.608 2457.25 445.814 2457.25 446.067L2457.25 450.153 2444.62 450.153Z" fill="#003C34" fill-rule="evenodd"/><path d="M2463.57 487 2427.43 487C2426.09 487 2425 488.119 2425 489.5 2425 490.881 2426.09 492 2427.43 492L2463.57 492C2464.91 492 2466 490.881 2466 489.5 2466 488.119 2464.91 487 2463.57 487Z" fill="#003C34" fill-rule="evenodd"/><path d="M2586.6 487 2472.4 487C2471.08 487 2470 488.119 2470 489.5 2470 490.881 2471.08 492 2472.4 492L2586.6 492C2587.92 492 2589 490.881 2589 489.5 2589 488.119 2587.92 487 2586.6 487Z" fill="#003C34" fill-rule="evenodd"/><path d="M2587.58 459 2427.42 459C2426.08 459 2425 460.119 2425 461.5 2425 462.881 2426.08 464 2427.42 464L2587.58 464C2588.92 464 2590 462.881 2590 461.5 2590 460.119 2588.92 459 2587.58 459Z" fill="#003C34" fill-rule="evenodd"/><path d="M2435.45 473C2436.1 473 2436.75 472.793 2437.25 472.378 2438.25 471.548 2438.25 470.201 2437.25 469.372L2436.35 468.623C2435.36 467.793 2433.74 467.792 2432.75 468.622 2431.75 469.453 2431.75 470.798 2432.75 471.628L2433.65 472.377C2434.14 472.793 2434.8 473 2435.45 473Z" fill="#003C34" fill-rule="evenodd"/><path d="M2448.37 483C2448.95 483 2449.52 482.79 2449.98 482.365L2451.23 481.195C2452.2 480.293 2452.26 478.766 2451.38 477.783 2450.49 476.8 2448.99 476.734 2448.02 477.635L2446.77 478.805C2445.8 479.707 2445.74 481.234 2446.62 482.217 2447.09 482.737 2447.73 483 2448.37 483Z" fill="#003C34" fill-rule="evenodd"/><path d="M2503.42 472.362C2503.83 472.791 2504.33 473 2504.83 473 2505.44 473 2506.05 472.686 2506.48 472.075 2507.26 470.963 2507.15 469.29 2506.24 468.339L2505.58 467.638C2504.67 466.685 2503.3 466.815 2502.52 467.926 2501.74 469.037 2501.85 470.71 2502.76 471.662Z" fill="#003C34" fill-rule="evenodd"/><path d="M2488.74 480C2489.99 480 2491 478.881 2491 477.5 2491 476.119 2489.99 475 2488.74 475L2487.26 475C2486.01 475 2485 476.119 2485 477.5 2485 478.881 2486.01 480 2487.26 480Z" fill="#003C34" fill-rule="evenodd"/><path d="M2538.58 475C2539.92 475 2541 473.881 2541 472.5 2541 471.119 2539.92 470 2538.58 470L2537.42 470C2536.08 470 2535 471.119 2535 472.5 2535 473.881 2536.08 475 2537.42 475Z" fill="#003C34" fill-rule="evenodd"/><path d="M2518.51 481C2518.95 481 2519.4 480.873 2519.81 480.607L2520.8 479.959C2521.98 479.189 2522.35 477.542 2521.63 476.281 2520.91 475.02 2519.37 474.623 2518.19 475.393L2517.2 476.041C2516.02 476.811 2515.65 478.458 2516.37 479.719 2516.84 480.545 2517.66 481 2518.51 481Z" fill="#003C34" fill-rule="evenodd"/><path d="M2571.76 475.861C2572.03 475.956 2572.31 476 2572.58 476 2573.57 476 2574.5 475.421 2574.85 474.488 2575.31 473.295 2574.66 471.977 2573.41 471.544L2572.24 471.139C2570.99 470.704 2569.6 471.321 2569.15 472.513 2568.69 473.705 2569.34 475.023 2570.59 475.457Z" fill="#003C34" fill-rule="evenodd"/><path d="M2470.58 474C2471.57 474 2472.5 473.421 2472.85 472.488 2473.31 471.295 2472.66 469.977 2471.41 469.543L2470.24 469.139C2468.99 468.705 2467.6 469.321 2467.15 470.513 2466.69 471.705 2467.34 473.023 2468.59 473.457L2469.76 473.862C2470.03 473.956 2470.31 474 2470.58 474Z" fill="#003C34" fill-rule="evenodd"/><path d="M2554.55 481C2555.32 481 2556.08 480.669 2556.58 480.04L2557.48 478.914C2558.33 477.843 2558.12 476.314 2557 475.498 2555.87 474.683 2554.27 474.89 2553.42 475.96L2552.52 477.086C2551.67 478.157 2551.88 479.686 2553 480.502 2553.47 480.838 2554.01 481 2554.55 481Z" fill="#003C34" fill-rule="evenodd"/><path d="M2562.62 442 2555.38 442C2554.07 442 2553 443.119 2553 444.5 2553 445.881 2554.07 447 2555.38 447L2562.62 447C2563.93 447 2565 445.881 2565 444.5 2565 443.119 2563.93 442 2562.62 442Z" fill="#003C34" fill-rule="evenodd"/></g></svg>