<svg width="56" height="51" xmlns="http://www.w3.org/2000/svg" xmlns:xlink="http://www.w3.org/1999/xlink" xml:space="preserve" overflow="hidden"><g transform="translate(-106 -394)"><path d="M45.4096 28.4362C47.9509 28.4362 50.0195 26.3676 50.0195 23.8263 50.0195 21.285 47.9509 19.2163 45.4096 19.2163 42.8682 19.2163 40.8014 21.285 40.8014 23.8263 40.8014 26.3676 42.87 28.4362 45.4096 28.4362Z" fill="#003C34" transform="matrix(1 0 0 1.11071 106.011 394)"/><path d="M55.9721 43.9538C55.7456 41.4646 55.1939 36.479 55.1489 36.0674 55.1345 34.3385 53.9322 32.6239 51.567 30.974 49.8416 29.768 47.7891 29.13 45.6288 29.13L45.1903 29.13C43.0318 29.13 40.9775 29.768 39.2522 30.974 36.8888 32.6257 35.6846 34.3385 35.6702 36.0674 35.6253 36.4772 35.0735 41.4628 34.8471 43.9538 34.8039 44.4337 34.9639 44.9135 35.2892 45.2712 35.6163 45.6288 36.0818 45.8337 36.5671 45.8337L54.2449 45.8337C54.7302 45.8337 55.1974 45.6288 55.5228 45.2712 55.8481 44.9153 56.0098 44.4337 55.9649 43.9538Z" fill="#003C34" transform="matrix(1 0 0 1.11071 106.011 394)"/><path d="M7.1477 25.983C9.92267 25.983 12.18 23.7238 12.18 20.9489 12.18 18.1739 9.92267 15.9165 7.1477 15.9165 4.37273 15.9165 2.11358 18.1739 2.11358 20.9489 2.11358 23.7238 4.37273 25.983 7.1477 25.983Z" fill="#003C34" transform="matrix(1 0 0 1.11071 106.011 394)"/><path d="M25.1473 29.5056C24.5398 29.5056 23.9557 29.6835 23.4578 30.016L19.6441 32.5592C18.9899 32.9941 18.1254 32.9797 17.4891 32.525L12.6887 29.094C10.1707 27.2986 6.97876 26.7253 4.15347 27.561 1.43601 28.3626-1.27703e-15 30.1203-1.27703e-15 32.649L-1.27703e-15 44.5235C-1.27703e-15 45.291 0.625446 45.9164 1.39288 45.9164L12.047 45.9164C12.8163 45.9164 13.4399 45.291 13.4399 44.5235L13.4399 39.3959C13.4399 39.1623 13.5513 38.952 13.7454 38.819 13.9431 38.6842 14.184 38.6573 14.4032 38.7453L17.7443 40.0861C18.6807 40.4545 19.7231 40.3215 20.5319 39.7284L26.9535 35.0196C28.2062 34.0994 28.5692 32.3902 27.8 31.0441 27.259 30.0951 26.24 29.5056 25.1437 29.5056Z" fill="#003C34" transform="matrix(1 0 0 1.11071 106.011 394)"/><path d="M13.253 11.1358C13.5262 11.3749 13.6178 11.7541 13.4812 12.083 12.9457 13.368 12.4263 14.3925 11.9338 15.1347 13.5855 15.0556 17.0398 14.7663 19.8004 13.7257 19.9082 13.6861 20.0179 13.6682 20.1329 13.6754 20.3791 13.6897 20.5858 13.6987 20.7997 13.6987 26.1501 13.6987 30.5049 10.6272 30.5049 6.84936 30.5049 3.07152 26.1501 0 20.7997 0 15.4492 0 11.0927 3.07152 11.0927 6.84756 11.0927 8.41837 11.8403 9.90111 13.253 11.1358ZM26.4862 4.80048C27.561 4.80048 28.4345 5.67575 28.4345 6.74871 28.4345 7.82168 27.5592 8.69694 26.4862 8.69694 25.4133 8.69694 24.5362 7.82168 24.5362 6.74871 24.5362 5.67575 25.4115 4.80048 26.4862 4.80048ZM20.6865 4.80048C21.7612 4.80048 22.6347 5.67575 22.6347 6.74871 22.6347 7.82168 21.7594 8.69694 20.6865 8.69694 19.6135 8.69694 18.7364 7.82168 18.7364 6.74871 18.7364 5.67575 19.6117 4.80048 20.6865 4.80048ZM14.8885 4.80048C15.9633 4.80048 16.8367 5.67575 16.8367 6.74871 16.8367 7.82168 15.9615 8.69694 14.8885 8.69694 13.8155 8.69694 12.9403 7.82168 12.9403 6.74871 12.9403 5.67575 13.8137 4.80048 14.8885 4.80048Z" fill="#F6630C" transform="matrix(1 0 0 1.11071 106.011 394)"/><path d="M35.3737 25.4923C35.3773 25.0862 35.1706 24.7195 34.8201 24.5128L31.071 22.2986C30.7188 22.0937 30.2982 22.0919 29.9441 22.2932 29.5919 22.4945 29.378 22.8558 29.3744 23.2619L29.3582 24.9208 19.1228 24.9208C18.8479 24.9208 18.6232 25.1437 18.6232 25.4204 18.6232 25.6972 18.8461 25.9201 19.1228 25.9201L29.3493 25.9201 29.3493 25.9201C29.3493 25.9201 29.3331 27.6149 29.3331 27.6149 29.3277 28.0193 29.5344 28.3841 29.8848 28.5926 30.0646 28.6986 30.2623 28.7526 30.4618 28.7526 30.6505 28.7526 30.8392 28.704 31.0135 28.607L34.8021 26.4664 34.8021 26.4664C35.1562 26.2652 35.3701 25.9021 35.3755 25.4941Z" fill="#F6630C" transform="matrix(1 0 0 1.11071 106.011 394)"/></g></svg>