<svg width="516" height="505" xmlns="http://www.w3.org/2000/svg" xmlns:xlink="http://www.w3.org/1999/xlink" xml:space="preserve" overflow="hidden"><g transform="translate(-566 -1190)"><path d="M988.666 1510.29 659.153 1510.29 655.362 1511.06 652.264 1513.16 650.174 1516.26 649.407 1520.06 649.407 1530.94 575.734 1530.94 571.95 1531.7 568.855 1533.8 566.767 1536.9 566 1540.69 566 1664.53 566.767 1668.32 568.855 1671.42 571.95 1673.51 575.734 1674.28 649.407 1674.28 649.407 1685.16 650.174 1688.95 652.264 1692.05 655.362 1694.14 659.153 1694.91 988.666 1694.91 992.455 1694.14 995.55 1692.05 997.637 1688.95 998.403 1685.16 998.403 1675.4 668.879 1675.4 668.879 1654.77 585.481 1654.77 585.481 1550.45 668.879 1550.45 668.879 1529.82 998.403 1529.82 998.403 1520.06 997.637 1516.26 995.55 1513.16 992.455 1511.06 988.666 1510.29Z" fill="#23403C" fill-rule="evenodd"/><path d="M998.403 1529.82 978.922 1529.82 978.922 1675.4 998.403 1675.4 998.403 1674.28 1072.08 1674.28 1075.86 1673.51 1078.95 1671.42 1081.04 1668.32 1081.81 1664.53 1081.81 1654.76 998.391 1654.76 998.391 1550.44 1081.81 1550.44 1081.81 1540.69 1081.04 1536.9 1078.95 1533.8 1075.86 1531.7 1072.08 1530.94 998.403 1530.94 998.403 1529.82Z" fill="#23403C" fill-rule="evenodd"/><path d="M668.879 1550.45 649.407 1550.45 649.407 1654.77 668.879 1654.77 668.879 1550.45Z" fill="#23403C" fill-rule="evenodd"/><path d="M1081.81 1550.44 1062.33 1550.44 1062.33 1654.76 1081.81 1654.76 1081.81 1550.44Z" fill="#23403C" fill-rule="evenodd"/><path d="M885.688 1436 762.122 1436 758.336 1436.77 755.241 1438.86 753.152 1441.96 752.385 1445.76 752.385 1510.29 771.857 1510.29 771.857 1455.51 895.422 1455.51 895.422 1445.76 894.657 1441.96 892.571 1438.86 889.477 1436.77 885.688 1436Z" fill="#23403C" fill-rule="evenodd"/><path d="M895.422 1455.51 875.953 1455.51 875.953 1510.29 895.422 1510.29 895.422 1455.51Z" fill="#23403C" fill-rule="evenodd"/><path d="M947.194 1190 699.692 1190 683.87 1193.2 670.933 1201.91 662.203 1214.82 659 1230.62 661.498 1244.65 668.446 1256.64 679.021 1265.6 692.402 1270.56 694.609 1270.96 782.75 1388.26 782.75 1435.92 802.259 1435.92 802.259 1394.74 864.146 1394.74 864.146 1388.26 873.9 1375.28 797.391 1375.28 719.201 1271.22 952.077 1271.22 952.274 1270.96 954.484 1270.56 967.87 1265.6 978.448 1256.64 981.276 1251.76 699.692 1251.76 691.456 1250.1 684.722 1245.56 680.177 1238.84 678.509 1230.62 680.177 1222.39 684.722 1215.67 691.456 1211.13 699.692 1209.46 981.07 1209.46 975.961 1201.91 963.022 1193.2 947.194 1190Z" fill="#F6620B" fill-rule="evenodd"/><path d="M864.146 1394.74 844.627 1394.74 844.627 1435.92 864.146 1435.92 864.146 1394.74Z" fill="#F6620B" fill-rule="evenodd"/><path d="M833.193 1271.22 813.693 1271.22 813.693 1375.28 833.193 1375.28 833.193 1271.22Z" fill="#F6620B" fill-rule="evenodd"/><path d="M952.077 1271.22 927.694 1271.22 849.517 1375.28 873.9 1375.28 952.077 1271.22Z" fill="#F6620B" fill-rule="evenodd"/><path d="M981.07 1209.46 947.194 1209.46 955.44 1211.13 962.176 1215.67 966.719 1222.39 968.386 1230.62 966.719 1238.84 962.176 1245.56 955.44 1250.1 947.194 1251.76 981.276 1251.76 985.397 1244.65 987.896 1230.62 984.692 1214.82 981.07 1209.46Z" fill="#F6620B" fill-rule="evenodd"/></g></svg>