<svg width="521" height="518" xmlns="http://www.w3.org/2000/svg" xmlns:xlink="http://www.w3.org/1999/xlink" xml:space="preserve" overflow="hidden"><defs><clipPath id="clip0"><rect x="1661" y="2886" width="521" height="518"/></clipPath></defs><g clip-path="url(#clip0)" transform="translate(-1661 -2886)"><path d="M1745.72 3252.73 1726.51 3252.73 1726.45 3261.89 1726.42 3293.98 1728.36 3316.9 1733.92 3330.66 1742.73 3344.41 1754.45 3358.16 1768.72 3367.33 1785.2 3371.91 1890.77 3371.91 1893 3376.5 1895.06 3376.5 1901.83 3385.66 1909.33 3390.25 1917.53 3394.83 1926.41 3399.42 1929.77 3404 1973.81 3404 1985.19 3399.42 1995.57 3394.83 2004.92 3385.66 1942 3385.66 1930.83 3381.08 1921.06 3376.5 1913.17 3367.33 1912.34 3367.33 1920.93 3362.74 1924.08 3358.16 2094.8 3358.16 2094.79 3353.58 1787.05 3353.58 1772.96 3344.41 1761.31 3335.24 1747.23 3312.32 1745.88 3298.57 1745.7 3284.81 1745.72 3252.73Z" fill="#113D34" fill-rule="evenodd"/><path d="M2134.88 3376.5 2078.8 3376.5 2083.91 3385.66 2090.3 3390.25 2097.96 3394.83 2115.78 3394.83 2123.43 3390.25 2129.8 3385.66 2134.88 3376.5Z" fill="#113D34" fill-rule="evenodd"/><path d="M2094.8 3358.16 1984.38 3358.16 1987.44 3362.74 1990.55 3362.74 1996.28 3367.33 1995.34 3367.33 1986.83 3376.5 1976.96 3381.08 1965.97 3385.66 2004.92 3385.66 2013.21 3376.5 2015.36 3376.5 2017.55 3371.91 2098.18 3371.91 2095.71 3367.33 2094.81 3362.74 2094.8 3358.16Z" fill="#113D34" fill-rule="evenodd"/><path d="M2098.18 3371.91 2075.34 3371.91 2077.25 3376.5 2101.96 3376.5 2098.18 3371.91Z" fill="#113D34" fill-rule="evenodd"/><path d="M2176.93 3289.4 2115.58 3289.4 2118.03 3293.98 2118.9 3298.57 2118.9 3362.74 2117.99 3367.33 2115.5 3371.91 2111.68 3376.5 2136.59 3376.5 2138.69 3371.91 2179.91 3371.91 2181.92 3367.33 2181.92 3362.74 2179.68 3358.16 2176.92 3353.58 2138.71 3353.58 2138.71 3307.73 2177.27 3307.73 2179.91 3303.15 2181.92 3303.15 2181.92 3293.98 2179.68 3293.98 2176.93 3289.4Z" fill="#113D34" fill-rule="evenodd"/><path d="M1968.01 3358.16 1940.29 3358.16 1944.93 3362.74 1963.37 3362.74 1968.01 3358.16Z" fill="#113D34" fill-rule="evenodd"/><path d="M1811.39 3252.73 1791.83 3252.73 1791.84 3275.65 1794.31 3289.4 1801.1 3298.57 1811.49 3307.73 1882.1 3307.73 1879.86 3321.49 1879.12 3330.66 1879.86 3339.82 1882.09 3353.58 2026.31 3353.58 2027.04 3348.99 1901.89 3348.99 1899.15 3335.24 1901.53 3312.32 1913.64 3293.98 1917.96 3289.4 1819.5 3289.4 1811.14 3275.65 1811.07 3261.89 1811.13 3261.89 1811.27 3257.31 1811.39 3252.73Z" fill="#113D34" fill-rule="evenodd"/><path d="M2094.79 3307.73 2074.93 3307.73 2074.93 3353.58 2094.79 3353.58 2094.79 3307.73Z" fill="#113D34" fill-rule="evenodd"/><path d="M1997.21 3344.41 1911.23 3344.41 1905.16 3348.99 2006.08 3348.99 1997.21 3344.41Z" fill="#113D34" fill-rule="evenodd"/><path d="M1970.95 3257.31 1939.86 3257.31 1926.27 3261.89 1913.62 3266.48 1902.26 3275.65 1965.39 3275.65 1976.13 3280.23 1994.54 3293.98 2006.58 3312.32 2009.12 3326.07 2009.12 3335.24 2006.55 3348.99 2027.04 3348.99 2028.51 3339.82 2029.23 3330.66 2028.46 3321.49 2026.21 3307.73 2094.79 3307.73 2094.81 3298.57 2095.65 3293.98 2098.03 3289.4 2017.55 3289.4 2014.74 3284.81 2013.2 3284.81 2001.01 3271.06 1986.76 3261.89 1970.95 3257.31Z" fill="#113D34" fill-rule="evenodd"/><path d="M1967.08 3303.15 1940.56 3303.15 1932.46 3307.73 1926.8 3316.9 1923.56 3326.07 1922.71 3335.24 1922.77 3335.24 1921.65 3339.82 1917.06 3339.82 1914.18 3344.41 1949.42 3344.41 1945.63 3339.82 1943.05 3335.24 1942.05 3330.66 1942.92 3326.07 1945.41 3321.49 1983.11 3321.49 1981.46 3316.9 1975.58 3307.73 1967.08 3303.15Z" fill="#113D34" fill-rule="evenodd"/><path d="M1990.49 3339.82 1960.88 3339.82 1958.77 3344.41 1993.85 3344.41 1990.49 3339.82Z" fill="#113D34" fill-rule="evenodd"/><path d="M1985.47 3335.24 1965.38 3335.24 1964.27 3339.82 1985.75 3339.82 1985.47 3335.24Z" fill="#113D34" fill-rule="evenodd"/><path d="M1983.11 3321.49 1962.69 3321.49 1965.28 3326.07 1966.27 3330.66 1966.06 3335.24 1985.52 3335.24 1984.77 3326.07 1983.11 3321.49Z" fill="#113D34" fill-rule="evenodd"/><path d="M1964.14 3298.57 1944.13 3298.57 1942.18 3303.15 1965.87 3303.15 1964.14 3298.57Z" fill="#113D34" fill-rule="evenodd"/><path d="M1963.98 3275.65 1944.34 3275.65 1944.37 3289.4 1944.31 3293.98 1944.2 3298.57 1964.09 3298.57 1964 3293.98 1963.97 3284.81 1963.98 3275.65Z" fill="#113D34" fill-rule="evenodd"/><path d="M1942.94 3275.65 1901.92 3275.65 1899.18 3280.23 1898.63 3280.23 1895.26 3284.81 1891.25 3289.4 1917.96 3289.4 1922.28 3284.81 1932.15 3280.23 1942.94 3275.65Z" fill="#113D34" fill-rule="evenodd"/><path d="M2106.72 3284.81 2077.22 3284.81 2074.64 3289.4 2101.78 3289.4 2106.72 3284.81Z" fill="#113D34" fill-rule="evenodd"/><path d="M2136.32 3284.81 2106.81 3284.81 2111.78 3289.4 2139.08 3289.4 2136.32 3284.81Z" fill="#113D34" fill-rule="evenodd"/><path d="M2115.58 3266.48 2097.87 3266.48 2090.16 3271.06 2083.61 3275.65 2078.23 3284.81 2135.29 3284.81 2129.89 3275.65 2123.31 3271.06 2115.58 3266.48Z" fill="#113D34" fill-rule="evenodd"/><path d="M1814.55 3193.13 1722.14 3193.13 1714.7 3197.72 1709.35 3206.89 1706.11 3211.47 1704.99 3220.64 1706.03 3229.81 1709.25 3238.97 1714.65 3243.56 1722.2 3248.14 1725.81 3252.73 1814.69 3252.73 1822.47 3243.56 1828.06 3238.97 1829.75 3234.39 1731.97 3234.39 1727.74 3229.81 1725.01 3225.22 1724.03 3220.64 1725.01 3216.05 1727.76 3211.47 1831.48 3211.47 1828.1 3206.89 1822.45 3197.72 1814.55 3193.13Z" fill="#113D34" fill-rule="evenodd"/><path d="M1831.48 3211.47 1809.85 3211.47 1812.53 3216.05 1813.48 3220.64 1812.57 3225.22 1809.93 3229.81 1805.75 3234.39 1829.75 3234.39 1831.44 3229.81 1832.59 3220.64 1831.48 3211.47Z" fill="#113D34" fill-rule="evenodd"/><path d="M1740.36 3124.37 1667.74 3124.37 1665.38 3128.96 1661.93 3128.96 1661.18 3133.54 1661 3133.54 1661.4 3138.12 1662.37 3138.12 1664.03 3142.71 1726.41 3142.71 1726.42 3170.21 1726.37 3179.38 1726.25 3188.55 1726.21 3193.13 1813.02 3193.13 1811.29 3188.55 1745.72 3188.55 1745.68 3138.12 1745.05 3133.54 1743.26 3128.96 1740.36 3124.37Z" fill="#113D34" fill-rule="evenodd"/><path d="M1879.99 3060.19 1666.5 3060.19 1663.7 3064.78 1661.81 3064.78 1661.04 3069.36 1661.59 3073.95 1663.37 3073.95 1666.16 3078.53 1856.83 3078.53 1856.83 3124.37 1798.23 3124.37 1794.57 3128.96 1792.5 3133.54 1791.84 3138.12 1791.83 3188.55 1811.29 3188.55 1811.18 3179.38 1811.14 3170.21 1811.15 3147.29 1812.57 3142.71 1879.67 3142.71 1878.25 3138.12 1877.19 3138.12 1876.76 3133.54 1876.56 3119.79 1876.61 3069.36 1877.51 3064.78 1879.99 3060.19Z" fill="#113D34" fill-rule="evenodd"/><path d="M1917.36 3147.29 1860.09 3147.29 1865.47 3156.46 1872.08 3161.04 1879.91 3165.63 1897.78 3165.63 1905.48 3161.04 1912.01 3156.46 1917.36 3147.29Z" fill="#113D34" fill-rule="evenodd"/><path d="M2135.11 3147.29 1969.25 3147.29 1974.69 3156.46 1981.36 3161.04 1989.32 3165.63 2115.28 3165.63 2123.3 3161.04 2129.91 3156.46 2135.11 3147.29Z" fill="#113D34" fill-rule="evenodd"/><path d="M1881.21 3142.71 1856.56 3142.71 1859.18 3147.29 1883.02 3147.29 1881.21 3142.71Z" fill="#113D34" fill-rule="evenodd"/><path d="M1920.93 3142.71 1896.69 3142.71 1893.47 3147.29 1918.28 3147.29 1920.93 3142.71Z" fill="#113D34" fill-rule="evenodd"/><path d="M1989.1 3060.19 1897.52 3060.19 1899.96 3064.78 1900.89 3069.36 1900.94 3101.45 1900.91 3133.54 1900.42 3138.12 1899.01 3142.71 1965.74 3142.71 1968.28 3147.29 1993.56 3147.29 1989.18 3142.71 1986.56 3138.12 1985.68 3133.54 1985.67 3124.37 1920.63 3124.37 1920.63 3078.53 1985.67 3078.53 1985.68 3069.36 1986.54 3064.78 1989.1 3060.19Z" fill="#113D34" fill-rule="evenodd"/><path d="M2176.93 3060.19 2115.45 3060.19 2118.05 3064.78 2118.91 3069.36 2118.9 3133.54 2118.03 3138.12 2115.42 3142.71 2111.05 3147.29 2136.44 3147.29 2138.09 3142.71 2179.91 3142.71 2181.92 3138.12 2181.92 3133.54 2179.68 3128.96 2176.92 3128.96 2173.58 3124.37 2138.71 3124.37 2138.71 3078.53 2177.27 3078.53 2179.91 3073.95 2181.92 3073.95 2181.92 3064.78 2179.68 3064.78 2176.93 3060.19Z" fill="#113D34" fill-rule="evenodd"/><path d="M1985.67 3078.53 1965.96 3078.53 1965.96 3124.37 1985.67 3124.37 1985.67 3078.53Z" fill="#113D34" fill-rule="evenodd"/><path d="M1897.6 3037.27 1879.93 3037.27 1872.36 3041.86 1866.04 3046.44 1859.34 3055.61 1857.47 3060.19 1883.81 3060.19 1888.75 3055.61 1916.69 3055.61 1911.59 3046.44 1905.23 3041.86 1897.6 3037.27Z" fill="#113D34" fill-rule="evenodd"/><path d="M1916.69 3055.61 1888.98 3055.61 1893.78 3060.19 1918.4 3060.19 1916.69 3055.61Z" fill="#113D34" fill-rule="evenodd"/><path d="M2114.14 3037.27 1996.21 3037.27 1987.3 3041.86 1979.79 3041.86 1973.63 3051.03 1968.78 3055.61 1967.86 3060.19 1993.39 3060.19 1999.42 3055.61 2134.87 3055.61 2131.27 3051.03 2126.6 3046.44 2120.89 3041.86 2114.14 3037.27Z" fill="#113D34" fill-rule="evenodd"/><path d="M2134.87 3055.61 2104.59 3055.61 2110.99 3060.19 2136.34 3060.19 2134.87 3055.61Z" fill="#113D34" fill-rule="evenodd"/><path d="M2087.11 2996.02 2016.13 2996.02 2008.98 3005.19 2003.75 3009.77 2000.47 3014.35 1999.14 3023.52 1999.04 3028.11 1999.1 3032.69 1999.12 3037.27 2018.65 3037.27 2018.5 3028.11 2018.56 3023.52 2018.79 3023.52 2020.05 3018.94 2022.55 3014.35 2102.8 3014.35 2101.11 3009.77 2095.32 3000.6 2087.11 2996.02Z" fill="#113D34" fill-rule="evenodd"/><path d="M2102.8 3014.35 2078.83 3014.35 2082.35 3018.94 2084.85 3018.94 2086.03 3023.52 2086.29 3028.11 2086.11 3037.27 2105.51 3037.27 2105.52 3028.11 2104.5 3018.94 2102.8 3014.35Z" fill="#113D34" fill-rule="evenodd"/><path d="M2040.43 2950.18 2020.79 2950.18 2020.8 2982.27 2020.86 2991.43 2020.7 2991.43 2020.01 2996.02 2040.43 2996.02 2040.43 2950.18Z" fill="#113D34" fill-rule="evenodd"/><path d="M2083.79 2950.18 2064.1 2950.18 2064.1 2996.02 2085.31 2996.02 2083.98 2991.43 2083.91 2991.43 2083.8 2986.85 2083.76 2982.27 2083.79 2950.18Z" fill="#113D34" fill-rule="evenodd"/><path d="M2130.57 2886 1974.83 2886 1965.51 2895.17 1958.77 2904.34 1955.5 2913.5 1956.49 2927.26 1961.43 2936.43 1969.54 2941.01 1980.01 2945.59 1984.6 2945.59 1989.2 2950.18 2118.82 2950.18 2130.6 2945.59 2140.24 2941.01 2146.77 2927.26 1980.05 2927.26 1977.2 2922.67 1975.37 2922.67 1974.78 2918.09 1975.5 2913.5 1977.34 2908.92 1980.11 2908.92 1983.62 2904.34 2146.83 2904.34 2140.29 2895.17 2130.57 2886Z" fill="#113D34" fill-rule="evenodd"/><path d="M2146.83 2904.34 2121.42 2904.34 2124.44 2908.92 2128.88 2908.92 2129.88 2913.5 2129.8 2918.09 2128.63 2922.67 2125.48 2927.26 2146.77 2927.26 2149.19 2918.09 2146.83 2904.34Z" fill="#113D34" fill-rule="evenodd"/></g></svg>