<svg width="531" height="463" xmlns="http://www.w3.org/2000/svg" xmlns:xlink="http://www.w3.org/1999/xlink" xml:space="preserve" overflow="hidden"><g transform="translate(-3865 -2913)"><path d="M3972.99 2968.01 3937.16 2968.01 3926.57 2972.59 3907.56 2990.93 3895.12 3009.27 3891.88 3023.02 3890.73 3041.36 3894.07 3059.69 3901.93 3073.45 3914.37 3087.2 3919.98 3091.78 3913.28 3096.37 3898.11 3110.12 3885.84 3119.29 3876.4 3137.62 3869.7 3151.38 3868.68 3155.96 3867.81 3160.54 3867.04 3165.13 3866.31 3165.13 3865.47 3169.71 3865 3174.3 3865 3238.48 3865.97 3238.48 3869.58 3252.23 3875.09 3261.4 3882.52 3265.98 3891.94 3270.56 3896.05 3275.15 3898.16 3279.73 3898.93 3279.73 3899.04 3284.32 3899.02 3293.49 3898.99 3339.33 3899.03 3366.83 3899.48 3371.42 3901.12 3376 4018.87 3376 4019.75 3371.42 4020.4 3371.42 4020.81 3366.83 4020.96 3362.25 4020.97 3357.66 3918.76 3357.66 3918.76 3270.56 3918.27 3261.4 3916.41 3261.4 3912.61 3256.81 3906.28 3256.81 3897.79 3252.23 3891.06 3247.64 3886.62 3243.06 3885 3233.89 3884.98 3229.31 3884.8 3210.97 3884.81 3192.63 3886.14 3169.71 3889.88 3151.38 3897.56 3137.62 3908.51 3123.87 3922.09 3114.7 3937.62 3110.12 3954.47 3105.53 4032.78 3105.53 4005.24 3091.78 4007.89 3087.2 3959.17 3087.2 3944.06 3082.61 3930.96 3078.03 3920.55 3064.28 3913.51 3050.52 3910.51 3036.77 3911.02 3027.6 3917.55 3009.27 3930.61 2995.51 3948.39 2986.35 4007.79 2986.35 3997.19 2977.18 3985.5 2972.59 3972.99 2968.01Z" fill="#113D34" fill-rule="evenodd"/><path d="M4222.78 3192.63 4200.68 3192.63 4197.61 3201.8 4196.74 3201.8 4151.63 3325.57 4147.27 3339.33 4142.92 3353.08 4138.61 3362.25 4137.75 3366.83 4138.43 3371.42 4140.53 3376 4153.79 3376 4155.7 3371.42 4157.51 3371.42 4193.85 3270.56 4219.13 3197.22 4220.51 3197.22 4222.78 3192.63Z" fill="#113D34" fill-rule="evenodd"/><path d="M4326.26 3371.42 4309 3371.42 4311.82 3376 4325.1 3376 4326.26 3371.42Z" fill="#113D34" fill-rule="evenodd"/><path d="M4263.48 3192.63 4242.98 3192.63 4245.54 3201.8 4251.97 3215.55 4258.44 3233.89 4284.42 3307.24 4307.92 3371.42 4327.09 3371.42 4327.31 3366.83 4326.94 3366.83 4325.97 3362.25 4267.99 3201.8 4263.48 3192.63Z" fill="#113D34" fill-rule="evenodd"/><path d="M4018.45 3155.96 4004.57 3155.96 4002.66 3160.54 4001.67 3160.54 4001.35 3165.13 4001.31 3357.66 4020.97 3357.66 4021.01 3339.33 4021.06 3307.24 4021.08 3197.22 4021.42 3188.05 4021.87 3178.88 4066.7 3178.88 4056.49 3174.3 4032.43 3165.13 4018.45 3155.96Z" fill="#113D34" fill-rule="evenodd"/><path d="M4106.73 3210.97 4094.39 3210.97 4097.88 3215.55 4106.73 3210.97Z" fill="#113D34" fill-rule="evenodd"/><path d="M4066.7 3178.88 4021.87 3178.88 4037.03 3188.05 4040.66 3188.05 4044.28 3192.63 4059.59 3197.22 4084.32 3210.97 4114.98 3210.97 4122.26 3201.8 4128.25 3197.22 4130.63 3192.63 4089.75 3192.63 4087.25 3188.05 4066.7 3178.88Z" fill="#113D34" fill-rule="evenodd"/><path d="M4231.4 3188.05 4107.81 3188.05 4103.16 3192.63 4226.29 3192.63 4231.4 3188.05Z" fill="#113D34" fill-rule="evenodd"/><path d="M4032.78 3105.53 3978.78 3105.53 3993.35 3110.12 4007.35 3114.7 4020.89 3119.29 4035.62 3128.46 4050.54 3133.04 4065.48 3142.21 4092.4 3155.96 4098.43 3155.96 4104.45 3160.54 4109.27 3165.13 4112.66 3169.71 4114.59 3174.3 4115.07 3178.88 4114 3183.47 4111.5 3188.05 4232.05 3188.05 4236 3192.63 4349.88 3192.63 4368.45 3188.05 4382.96 3178.88 4387.69 3169.71 4129.9 3169.71 4134.76 3160.54 4135.9 3155.96 4140.57 3146.79 4119.02 3146.79 4111.93 3142.21 4105.57 3137.62 4097.31 3137.62 4093.69 3133.04 4091.15 3128.46 4089.66 3128.46 4089.18 3123.87 4069.51 3123.87 4032.78 3105.53Z" fill="#113D34" fill-rule="evenodd"/><path d="M4389.32 2935.92 4360.19 2935.92 4369.03 2940.5 4374.3 2949.67 4376.05 2963.43 4376.05 3142.21 4374.28 3155.96 4369 3165.13 4360.22 3169.71 4387.69 3169.71 4392.41 3160.54 4395.79 3142.21 4395.79 2958.84 4392.44 2940.5 4389.32 2935.92Z" fill="#113D34" fill-rule="evenodd"/><path d="M4173.56 3073.45 4154.81 3073.45 4142.26 3100.95 4124.34 3137.62 4122.87 3137.62 4119.02 3146.79 4140.57 3146.79 4154.58 3119.29 4172.7 3082.61 4174.09 3078.03 4174.25 3078.03 4173.56 3073.45Z" fill="#113D34" fill-rule="evenodd"/><path d="M4350.3 2913 4109.71 2913 4104.44 2917.58 4094.59 2917.58 4083.55 2926.75 4075.71 2935.92 4071.05 2949.67 4069.51 2963.43 4069.51 3123.87 4089.18 3123.87 4089.22 3100.95 4089.27 3059.69 4089.24 2963.43 4089.27 2958.84 4089.33 2958.84 4091.34 2949.67 4096.25 2940.5 4103.51 2935.92 4389.32 2935.92 4383.08 2926.75 4368.7 2917.58 4350.3 2913Z" fill="#113D34" fill-rule="evenodd"/><path d="M4007.79 2986.35 3975.7 2986.35 3988.92 2995.51 3999.46 3004.68 4006.59 3018.44 4009.55 3032.19 4009.29 3041.36 4003.32 3059.69 3990.28 3073.45 3972.01 3082.61 3961.68 3087.2 4007.89 3087.2 4010.53 3082.61 4020.94 3068.86 4026.8 3055.11 4029.19 3041.36 4029.21 3032.19 4027 3018.44 4022.57 3004.68 4016.1 2995.51 4007.79 2986.35Z" fill="#113D34" fill-rule="evenodd"/><path d="M4170.45 3068.86 4158.92 3068.86 4156.86 3073.45 4172.44 3073.45 4170.45 3068.86Z" fill="#113D34" fill-rule="evenodd"/><path d="M4327.95 3049.32 4315.89 3040.23 4307.37 3040.03 4234.25 3040.06 4223.31 3050.97 4224.04 3053.98 4244.43 3059.72 4274.89 3059.63 4280.91 3059.87 4296.04 3059.88 4316.84 3059.8 4327.66 3052.4 4327.95 3049.32Z" fill="#F6620B" fill-rule="evenodd"/><path d="M4327.97 2990.43 4318.64 2980.13 4317.66 2980 4148.67 2980.03 4138.07 2988.85 4138 2991.13 4138.48 2993.32 4184.24 2999.87 4232.56 2999.83 4282.68 2999.86 4317.78 2999.78 4321.74 2999.09 4324.89 2997.18 4327.03 2994.23 4327.97 2990.43Z" fill="#F6620B" fill-rule="evenodd"/><path d="M4328 3109.84 4317 3100.06 4254.72 3100.02 4233.41 3100.08 4223.4 3107.94 4223.41 3111.54 4276.43 3119.93 4317.05 3119.82 4321.44 3119.05 4324.91 3116.97 4327.19 3113.82 4328 3109.84Z" fill="#F6620B" fill-rule="evenodd"/></g></svg>