<?xml version="1.0" standalone="no"?>
<!DOCTYPE svg PUBLIC "-//W3C//DTD SVG 20010904//EN"
 "http://www.w3.org/TR/2001/REC-SVG-20010904/DTD/svg10.dtd">
<svg version="1.0" xmlns="http://www.w3.org/2000/svg"
 width="55.000000pt" height="60.000000pt" viewBox="0 0 55.000000 60.000000"
 preserveAspectRatio="xMidYMid meet">

<g transform="translate(0.000000,60.000000) scale(0.100000,-0.100000)"
fill="#000000" stroke="none">
<path d="M120 573 c-7 -15 -13 -31 -12 -36 3 -11 -38 -130 -49 -143 -5 -6 -7
-13 -4 -15 2 -3 -4 -33 -14 -66 l-19 -62 208 -3 208 -3 26 -28 c14 -15 30 -36
36 -47 11 -21 4 -70 -11 -70 -5 0 -8 -5 -7 -12 2 -7 -7 -17 -19 -23 -13 -5
-23 -13 -23 -16 0 -7 -81 0 -89 7 -2 2 -5 12 -6 22 -1 9 -7 30 -14 45 -6 15
-14 39 -17 52 -3 14 -12 25 -20 25 -17 0 -17 -5 -3 -50 6 -19 12 -44 14 -55 2
-11 10 -36 17 -55 11 -30 17 -35 43 -32 99 8 145 36 165 98 10 29 9 43 -5 79
-14 37 -24 48 -68 68 -37 17 -63 23 -89 20 -69 -9 -85 1 -104 65 -10 31 -18
64 -19 72 0 8 -6 25 -13 38 -7 12 -10 27 -7 32 3 6 2 10 -3 10 -9 0 -25 56
-27 90 0 9 -12 16 -31 18 -25 2 -33 -2 -44 -25z m71 -101 c7 -26 14 -51 14
-57 1 -5 7 -23 14 -40 22 -52 25 -86 10 -96 -16 -10 -119 -12 -143 -3 -19 7
-20 23 -5 61 7 15 13 39 15 52 2 13 7 27 11 30 4 3 9 16 10 29 2 12 10 38 18
58 19 46 37 35 56 -34z"/>
</g>
</svg>
